<svg width="284" height="504" viewBox="0 0 284 504" fill="none" xmlns="http://www.w3.org/2000/svg">
<rect x="15" y="97" width="254" height="392" stroke="black" stroke-width="30"/>
<path d="M63 141C57 134.333 44.8 110.6 44 69C43.2 27.4 56.3334 16.3333 63 16C74.3334 12.6667 92.4 22.4 74 88" stroke="black" stroke-width="30" stroke-linecap="round"/>
<path d="M221.035 140.569C215.035 133.902 202.835 110.169 202.035 68.5689C201.235 26.9689 214.368 15.9022 221.035 15.5689C232.368 12.2355 250.435 21.9689 232.035 87.5689" stroke="black" stroke-width="30" stroke-linecap="round"/>
<path d="M142.035 141C136.035 134.333 123.835 110.6 123.035 69C122.235 27.4 135.368 16.3333 142.035 16C153.368 12.6667 171.435 22.4 153.035 88" stroke="black" stroke-width="30" stroke-linecap="round"/>
<path d="M73 265.37C76.3333 255.704 109.2 240.17 214 255.37" stroke="black" stroke-width="34" stroke-linecap="round"/>
<path d="M81.8281 343C71.8281 332.667 82.8281 311 206.828 307" stroke="black" stroke-width="34" stroke-linecap="round"/>
<path d="M74 401C82.6667 401.333 108.8 400.2 144 393C179.2 385.8 205.333 384 214 384" stroke="black" stroke-width="35" stroke-linecap="round"/>
</svg>
